<?xml version="1.0" encoding="UTF-8" standalone="no"?>
<!DOCTYPE svg PUBLIC "-//W3C//DTD SVG 1.1//EN" "http://www.w3.org/Graphics/SVG/1.1/DTD/svg11.dtd">
<svg version="1.1" xmlns="http://www.w3.org/2000/svg" xmlns:xlink="http://www.w3.org/1999/xlink" preserveAspectRatio="xMidYMid meet" viewBox="0 0 520.49 164.98" width="520.49" height="164.98"><defs><path d="M4.31 53.76L4.31 164.98L43.3 164.98L43.3 53.76L4.31 53.76ZM23.8 41.45C30.78 41.45 36.53 39.6 41.04 35.5C45.35 31.4 47.61 26.27 47.61 20.11C47.61 14.36 45.35 9.44 41.04 5.75C36.53 2.05 30.78 0 23.8 0C16.62 0 10.88 2.05 6.57 5.95C2.05 10.05 0 14.98 0 20.73C0 26.68 2.05 31.6 6.57 35.5C10.88 39.6 16.62 41.45 23.8 41.45Z" id="a6oZNHJTWQ"></path><path d="M119.46 57.87C119.46 56.39 119.46 55.57 119.46 55.4C119.46 50.68 120.49 46.99 122.74 44.53C125 42.07 128.28 40.83 132.39 40.83C136.29 40.83 140.19 42.07 144.08 44.12C145.05 41.37 152.76 19.37 153.73 16.62C150.65 14.77 146.75 13.34 142.24 12.31C137.52 11.49 132.8 10.88 127.87 10.88C113.1 10.88 101.81 14.98 93.61 22.78C85.4 30.78 81.5 41.45 81.5 54.99C81.5 55.19 81.5 56.14 81.5 57.87L65.29 57.87L65.29 87L81.5 87L81.5 164.98L120.49 164.98L120.49 87L145.93 87L145.93 57.87L119.46 57.87Z" id="fK6P0fSjI"></path><path d="M185.33 53.76L185.33 164.98L224.32 164.98L224.32 53.76L185.33 53.76ZM204.82 41.45C211.8 41.45 217.55 39.6 222.06 35.5C226.37 31.4 228.63 26.27 228.63 20.11C228.63 14.36 226.37 9.44 222.06 5.75C217.55 2.05 211.8 0 204.82 0C197.64 0 191.9 2.05 187.59 5.95C183.07 10.05 181.02 14.98 181.02 20.73C181.02 26.68 183.07 31.6 187.59 35.5C191.9 39.6 197.64 41.45 204.82 41.45Z" id="f9dYN4tEZ"></path><path d="M258 12.72L258 164.98L296.99 164.98L296.99 12.72L258 12.72Z" id="odchGKWwJ"></path><path d="M475.55 51.92C467.55 51.92 460.16 53.56 453.59 56.43C446.82 59.51 441.28 63.82 436.97 69.36C433.07 63.61 428.15 59.1 421.99 56.22C415.84 53.35 408.86 51.92 401.06 51.92C394.29 51.92 388.13 53.15 382.39 55.4C376.64 57.66 371.92 60.94 367.82 65.46C367.82 64.68 367.82 60.78 367.82 53.76L330.68 53.76L330.68 164.98L369.67 164.98C369.67 131.86 369.67 113.46 369.67 109.78C369.67 101.57 371.31 95.21 375 91.11C378.49 87 383.21 84.95 389.37 84.95C400.45 84.95 406.19 92.55 406.19 107.73C406.19 111.55 406.19 130.63 406.19 164.98L445.18 164.98C445.18 131.86 445.18 113.46 445.18 109.78C445.18 101.57 446.82 95.21 450.52 91.11C454 87 458.72 84.95 464.67 84.95C470.01 84.95 474.11 86.8 476.99 90.49C479.86 94.19 481.5 99.93 481.5 107.73C481.5 111.55 481.5 130.63 481.5 164.98L520.49 164.98C520.49 126.81 520.49 105.61 520.49 101.37C520.49 84.95 516.38 72.44 508.18 64.23C499.97 56.02 489.09 51.92 475.55 51.92Z" id="cUdDzRC1X"></path></defs><g><g><g><use xlink:href="#a6oZNHJTWQ" opacity="1" fill="#66cbc4" fill-opacity="1"></use><g><use xlink:href="#a6oZNHJTWQ" opacity="1" fill-opacity="0" stroke="#66cbc4" stroke-width="0" stroke-opacity="1"></use></g></g><g><use xlink:href="#fK6P0fSjI" opacity="1" fill="#70c6bf" fill-opacity="1"></use><g><use xlink:href="#fK6P0fSjI" opacity="1" fill-opacity="0" stroke="#70c6bf" stroke-width="0" stroke-opacity="1"></use></g></g><g><use xlink:href="#f9dYN4tEZ" opacity="1" fill="#7ac1bb" fill-opacity="1"></use><g><use xlink:href="#f9dYN4tEZ" opacity="1" fill-opacity="0" stroke="#7ac1bb" stroke-width="0" stroke-opacity="1"></use></g></g><g><use xlink:href="#odchGKWwJ" opacity="1" fill="#8db8b2" fill-opacity="1"></use><g><use xlink:href="#odchGKWwJ" opacity="1" fill-opacity="0" stroke="#8db8b2" stroke-width="0" stroke-opacity="1"></use></g></g><g><use xlink:href="#cUdDzRC1X" opacity="1" fill="#aaaaa5" fill-opacity="1"></use><g><use xlink:href="#cUdDzRC1X" opacity="1" fill-opacity="0" stroke="#aaaaa5" stroke-width="0" stroke-opacity="1"></use></g></g></g></g></svg>